<svg width="26" height="26" viewBox="0 0 26 26" fill="none" xmlns="http://www.w3.org/2000/svg">
<path fill-rule="evenodd" clip-rule="evenodd" d="M8.177 23.4283C17.9881 23.4283 23.3545 15.1831 23.3545 8.0337C23.3545 7.799 23.3545 7.56605 23.3389 7.33398C24.3828 6.56919 25.2837 5.61963 26 4.53312C25.0276 4.97089 23.9941 5.25798 22.9372 5.38456C24.05 4.70813 24.8833 3.64541 25.2824 2.39144C24.2346 3.02172 23.0893 3.46655 21.8946 3.70522C19.8744 1.52691 16.4957 1.42137 14.3468 3.47045C12.9623 4.79167 12.3734 6.76159 12.8037 8.64057C8.515 8.42169 4.5188 6.36737 1.8096 2.98784C0.3939 5.46018 1.118 8.62181 3.4619 10.2094C2.613 10.1843 1.7823 9.95251 1.04 9.53321V9.60187C1.0413 12.1771 2.8314 14.3945 5.3196 14.9047C4.5344 15.1223 3.7102 15.1539 2.912 14.9969C3.6101 17.2016 5.6134 18.7117 7.8949 18.7552C6.006 20.261 3.6725 21.0787 1.2701 21.076C0.8463 21.0747 0.4225 21.0496 0 20.9982C2.4401 22.5858 5.278 23.4283 8.177 23.4244" fill="#898989"/>
</svg>
