<svg width="26" height="26" viewBox="0 0 26 26" fill="none" xmlns="http://www.w3.org/2000/svg">
<g clip-path="url(#clip0_435_611)">
<path d="M13.0101 26.0203C20.1954 26.0203 26.0203 20.1954 26.0203 13.0101C26.0203 5.82483 20.1954 0 13.0101 0C5.82483 0 0 5.82483 0 13.0101C0 20.1954 5.82483 26.0203 13.0101 26.0203Z" fill="#898989"/>
<path fill-rule="evenodd" clip-rule="evenodd" d="M5.87706 12.8683C9.66662 11.2065 12.1997 10.1325 13.4764 9.60559C17.0836 8.10598 17.8334 7.84253 18.3198 7.82227C18.4211 7.82227 18.6643 7.84253 18.8264 7.96412C18.948 8.06545 18.9885 8.2073 19.0088 8.30863C19.0291 8.40995 19.0493 8.63287 19.0291 8.81525C18.8264 10.862 17.9955 15.8675 17.5497 18.1574C17.3673 19.1301 17.0026 19.4544 16.658 19.4949C15.9082 19.5557 15.3206 18.9883 14.591 18.5222C13.4562 17.7724 12.8077 17.3063 11.6931 16.5767C10.4164 15.7256 11.2473 15.2595 11.9768 14.5097C12.1592 14.3071 15.5029 11.2876 15.5637 11.0039C15.5637 10.9633 15.584 10.8418 15.5029 10.781C15.4219 10.7202 15.3206 10.7404 15.2395 10.7607C15.1179 10.781 13.2941 11.9969 9.74768 14.3881C9.22079 14.7529 8.75469 14.915 8.32913 14.915C7.86303 14.915 6.97137 14.6516 6.30263 14.4287C5.49203 14.1652 4.84355 14.0234 4.90434 13.5775C4.94487 13.3546 5.26911 13.1114 5.87706 12.8683Z" fill="white"/>
</g>
<defs>
<clipPath id="clip0_435_611">
<rect width="26" height="26" fill="white"/>
</clipPath>
</defs>
</svg>
