<svg width="190" height="190" viewBox="0 0 190 190" fill="none" xmlns="http://www.w3.org/2000/svg">
<path d="M112.184 100.406L97.7362 96.368L83.0745 104.618L78.5417 120.821L86.7914 135.474L102.994 140.007L119.115 130.941L123.079 124.018L132.301 130.62V134.699L120.862 139.974L81.0636 158.641L54.0067 158.072L75.4758 139.669L46.6058 151.322L24.8976 137.947L23.5625 135.639L66.2371 121.356L27.4278 125.04L16.6314 95.6922L16.6561 92.717L69.476 101.832L35.4962 81.2696L37.1445 45.4354L38.7104 43.4245L86.3629 85.5799L62.1328 45.9629L78.8219 6.25526L81.7311 5.052L113.098 99.2443L112.184 100.406Z" fill="white"/>
<path d="M94.5879 107.041L91.9342 112.752L94.6539 117.656H91.1924L88.72 113.37H86.536L85.2008 117.656H82.1432L84.9618 108.458L85.786 106.085L93.7803 101.964L94.6044 102.525L94.5879 107.041ZM91.8517 106.118L88.2667 107.832L87.5085 110.263H90.1293L91.8517 106.736V106.118Z" fill="white"/>
<path d="M105.294 104.404L99.673 102.64L99.3186 102.871V106.991H102.615V110.099H99.3186V114.557H105.294V117.664H96.228L96.3928 100.431L98.5768 99.2692L105.31 101.305L105.294 104.404Z" fill="white"/>
<path d="M115.299 104.371L112.909 108.788L117.302 117.64H113.304L111.038 112.266L110.074 114.054V117.64H106.925V101.766L110.074 102.698V108.417L112.439 103.472L115.299 104.371Z" fill="white"/>
<path d="M122.453 110.016V117.656H119.337V109.085L115.587 107.898L117.071 105.088L126.136 108.112V110.956L122.453 110.016Z" fill="white"/>
<path d="M94.5138 121.834V132.548L92.305 133.966L88.3903 132.771L84.9866 126.392L81.4427 120.054L81.69 119.23H91.9424L94.5138 121.834ZM90.6485 122.345H86.2063L90.6485 130.587L91.4067 130.298V123.071L90.6485 122.345Z" fill="white"/>
<path d="M102.508 119.238L105.805 135.252L102.714 136.9L102.401 134.057H99.4916L99.1208 136.051L95.7582 135.029L99.3515 119.247L102.508 119.238ZM101.791 130.933L100.917 126.812L100.093 130.933H101.791Z" fill="white"/>
<path d="M116.205 129.557L110.041 132.853L107.107 130.669V121.834L109.703 119.238H117.796L120.392 121.595L116.205 129.557ZM115.925 122.345H110.98L110.23 123.104V128.461L111.195 129.12L113.543 127.776L116.205 122.634L115.925 122.345Z" fill="white"/>
<path d="M155.608 60.7812L154.875 58.1027L147.49 53.8253L144.342 46.5645L135.21 44.4712L139.034 56.9983L155.608 60.7812Z" fill="#F5F5F5"/>
<path d="M153.877 104.527L127.933 82.1185L120.648 64.9597L126.013 56.4215L134.98 56.8253L131.172 44.3641L118.365 44.9328L110.066 66.3772L116.568 87.6321L138.194 111.326L137.988 137.815L82.5883 163.281L38.867 162.226L40.7461 164.451L65.2976 174.358L75.7643 184.94L127.538 179.245L165.572 138.919L153.877 104.527Z" fill="#F5F5F5"/>
</svg>
